<?xml version="1.0" encoding="utf-8"?>
<!-- Generator: Adobe Illustrator 16.0.2, SVG Export Plug-In . SVG Version: 6.00 Build 0)  -->
<!DOCTYPE svg PUBLIC "-//W3C//DTD SVG 1.1//EN" "http://www.w3.org/Graphics/SVG/1.1/DTD/svg11.dtd">
<svg version="1.1" id="Layer_1" xmlns="http://www.w3.org/2000/svg" xmlns:xlink="http://www.w3.org/1999/xlink" x="0px" y="0px"
	 width="272" height="83" viewBox="0 0 191.356 57.344" enable-background="new 0 0 191.356 57.344"
	 xml:space="preserve">
<g>
	<defs>
		<rect id="SVGID_1_" y="0" width="191.356" height="57.344"/>
	</defs>
	<clipPath id="SVGID_2_">
		<use xlink:href="#SVGID_1_"  overflow="visible"/>
	</clipPath>
	<path clip-path="url(#SVGID_2_)" fill="#444b5e" d="M75.198,5.328c-1.872,0.047-2.977,0.863-3.34,2.42
		c0.481,0.418,1.126,0.6,1.769,0.572c1.415-0.061,2.817-1.138,2.42-2.965C75.749,5.33,75.465,5.32,75.198,5.328"/>
	<path clip-path="url(#SVGID_2_)" fill="#444b5e" d="M152.528,27.115c-1.522-2.088-3.507-3.131-5.951-3.131
		c-2.125,0-3.948,0.781-5.472,2.341c-1.523,1.542-2.285,3.403-2.285,5.584c0,2.163,0.752,4.034,2.257,5.613
		c1.523,1.561,3.386,2.342,5.584,2.342c2.2,0,4.156-1.025,5.867-3.075v2.567h1.891V24.379h-1.891V27.115z M150.893,36.338
		c-1.166,1.166-2.567,1.749-4.203,1.749c-1.617,0-3.008-0.602-4.174-1.806c-1.166-1.222-1.749-2.66-1.749-4.315
		c0-1.654,0.574-3.083,1.721-4.287c1.147-1.222,2.548-1.834,4.202-1.834c1.674,0,3.084,0.593,4.231,1.777
		c1.146,1.166,1.721,2.605,1.721,4.316C152.642,33.706,152.059,35.172,150.893,36.338"/>
	<rect x="135.011" y="24.38" clip-path="url(#SVGID_2_)" fill="#444b5e" width="1.946" height="14.977"/>
	<polygon clip-path="url(#SVGID_2_)" fill="#444b5e" points="103.934,19.105 95.755,35.718 87.518,19.105 87.208,19.105 
		84.331,39.356 86.278,39.356 88.252,24.746 95.501,39.356 96.008,39.356 103.172,24.859 105.147,39.356 107.149,39.356 
		104.244,19.105 	"/>
	<path clip-path="url(#SVGID_2_)" fill="#444b5e" d="M121.864,27.115c-1.521-2.088-3.506-3.131-5.951-3.131
		c-2.124,0-3.947,0.781-5.471,2.341c-1.524,1.542-2.285,3.403-2.285,5.584c0,2.163,0.752,4.034,2.256,5.613
		c1.523,1.561,3.386,2.342,5.585,2.342c2.2,0,4.156-1.025,5.866-3.075v2.567h1.89V24.379h-1.89V27.115z M120.229,36.338
		c-1.166,1.166-2.567,1.749-4.203,1.749c-1.617,0-3.008-0.602-4.174-1.806c-1.166-1.222-1.749-2.66-1.749-4.315
		c0-1.654,0.573-3.083,1.72-4.287c1.148-1.222,2.548-1.834,4.203-1.834c1.674,0,3.084,0.593,4.231,1.777
		c1.146,1.166,1.72,2.605,1.72,4.316C121.978,33.706,121.396,35.172,120.229,36.338"/>
	<path clip-path="url(#SVGID_2_)" fill="#444b5e" d="M170.655,21.756c-0.978-0.921-2.143-1.589-3.497-2.002
		c-1.335-0.432-3.441-0.649-6.318-0.649h-4.202v20.252h6.459c2.633,0,4.644-0.396,6.035-1.185c1.41-0.79,2.521-1.956,3.328-3.498
		c0.828-1.562,1.241-3.215,1.241-4.964c0-1.769-0.263-3.309-0.789-4.625C172.386,23.768,171.633,22.659,170.655,21.756
		 M171.022,32.981c-0.434,1.034-1.063,1.918-1.891,2.651c-0.826,0.715-1.796,1.193-2.904,1.438
		c-1.091,0.245-2.858,0.367-5.304,0.367h-2.341V21.079h1.438c2.426,0,4.26,0.132,5.501,0.395c1.259,0.245,2.35,0.734,3.271,1.467
		c0.922,0.733,1.627,1.664,2.116,2.792c0.508,1.128,0.761,2.36,0.761,3.695S171.454,31.947,171.022,32.981"/>
	<path clip-path="url(#SVGID_2_)" fill="#444b5e" d="M183.707,28.299c0.847-0.451,1.484-1.043,1.918-1.777
		c0.451-0.752,0.677-1.57,0.677-2.454c0-1.598-0.555-2.82-1.664-3.667c-1.091-0.865-2.698-1.297-4.823-1.297h-4.005v20.252h5.584
		c1.938,0,3.517-0.546,4.739-1.636c1.222-1.11,1.833-2.501,1.833-4.175c0-1.24-0.367-2.313-1.1-3.216
		C186.151,29.428,185.098,28.751,183.707,28.299 M177.812,21.08h2.342c2.708,0,4.062,0.996,4.062,2.989
		c0,1.204-0.432,2.088-1.297,2.652c-0.866,0.564-2.182,0.846-3.949,0.846h-1.157V21.08z M185.202,35.604
		c-0.434,0.602-0.996,1.053-1.693,1.354c-0.676,0.282-1.739,0.424-3.186,0.424h-2.512v-7.785h1.128c1.824,0,3.065,0.094,3.725,0.282
		c0.677,0.188,1.25,0.471,1.72,0.847c0.489,0.376,0.855,0.809,1.101,1.297c0.243,0.489,0.366,1.053,0.366,1.692
		S185.635,34.984,185.202,35.604"/>
	<path clip-path="url(#SVGID_2_)" fill="#444b5e" d="M191.129,19.95c-0.151-0.271-0.363-0.48-0.633-0.626
		c-0.272-0.146-0.549-0.219-0.834-0.219s-0.563,0.073-0.834,0.219c-0.271,0.146-0.482,0.355-0.635,0.626
		c-0.152,0.273-0.228,0.556-0.228,0.851c0,0.292,0.075,0.573,0.225,0.842c0.149,0.27,0.358,0.479,0.628,0.628
		c0.269,0.15,0.551,0.224,0.844,0.224s0.574-0.074,0.844-0.224c0.27-0.149,0.478-0.358,0.626-0.628
		c0.15-0.269,0.225-0.55,0.225-0.842C191.356,20.506,191.28,20.223,191.129,19.95 M190.889,21.503
		c-0.124,0.224-0.299,0.399-0.523,0.524s-0.459,0.187-0.703,0.187s-0.479-0.062-0.704-0.187c-0.224-0.125-0.399-0.3-0.524-0.524
		s-0.188-0.458-0.188-0.702c0-0.246,0.063-0.482,0.19-0.709c0.128-0.227,0.305-0.401,0.529-0.523
		c0.227-0.122,0.458-0.183,0.696-0.183c0.237,0,0.468,0.061,0.694,0.183c0.226,0.122,0.402,0.296,0.528,0.523
		c0.127,0.227,0.19,0.463,0.19,0.709C191.075,21.045,191.013,21.279,190.889,21.503"/>
	<path clip-path="url(#SVGID_2_)" fill="#444b5e" d="M189.957,21.018c-0.037-0.037-0.09-0.07-0.154-0.097
		c0.158-0.012,0.284-0.067,0.38-0.166c0.095-0.098,0.143-0.214,0.143-0.347c0-0.094-0.027-0.183-0.085-0.267
		s-0.134-0.143-0.229-0.176c-0.097-0.034-0.251-0.051-0.466-0.051h-0.627v1.822h0.295v-0.773h0.173
		c0.103-0.001,0.182,0.02,0.234,0.061c0.079,0.057,0.183,0.199,0.31,0.425l0.163,0.287h0.356l-0.222-0.357
		C190.12,21.21,190.031,21.09,189.957,21.018 M189.569,20.71h-0.356v-0.547h0.335c0.144,0,0.241,0.01,0.296,0.031
		c0.053,0.021,0.094,0.052,0.124,0.095c0.029,0.042,0.045,0.091,0.045,0.144c0,0.083-0.031,0.151-0.093,0.201
		C189.857,20.685,189.74,20.71,189.569,20.71"/>
	<path clip-path="url(#SVGID_2_)" fill="#444b5e" d="M135.972,19.105c-0.38,0-0.71,0.14-0.991,0.421
		c-0.264,0.28-0.396,0.611-0.396,0.991c0,0.363,0.132,0.685,0.396,0.966c0.281,0.281,0.611,0.421,0.991,0.421
		c0.397,0,0.728-0.132,0.991-0.396c0.281-0.281,0.421-0.612,0.421-0.991c0-0.397-0.14-0.727-0.421-0.991
		C136.699,19.245,136.369,19.105,135.972,19.105"/>
	<path clip-path="url(#SVGID_2_)" fill="#444b5e" d="M132.377,24.146c-1.592,0.216-3.013,0.969-4.07,2.076
		c-0.071,0.075-0.142,0.152-0.21,0.231V24.41h-0.336v-0.031h-1.509v0.031v14.947v0.005h1.965v-3.685v-5.194
		c0-0.866,0.239-1.645,0.712-2.339c0.806-1.286,2.22-2.148,3.839-2.181v-1.902C132.457,24.119,132.377,24.141,132.377,24.146"/>
	<path clip-path="url(#SVGID_2_)" fill="#444b5e" d="M84.839,0h-0.142L84.672,0c-1.335,0.043-1.542,0.767-4.425,1.477
		c-2.912,0.717-5.725,0.028-8.861,1.344C62.025,6.748,60.031,20.293,51.521,25.1c-6.361,3.593-12.512,5.188-18.281,6.995
		c-3.792,1.188-7.552,2.556-10.988,5.516c-2.667,2.299-3.391,4.085-6.177,6.969c-2.835,2.933-11.553-2.258-15.801,1.54
		c-0.373,0.332-0.363,0.924,0.014,1.253c0.921,0.805,2.671,2.722,4.336,3.314c-0.528,1.001-3.513,3.946-2.904,5.419
		c0.641,1.549,8.039,0.497,14.88-3.633c3.185-1.924,5.723-4.696,10.685-5.357c6.42-0.855,13.817,0.549,21.25,1.62
		c-1.103,3.286-3.315,5.473-5.088,8.089c-0.549,0.592,1.103,0.658,2.986,0.301c3.389-0.838,5.832-1.513,8.389-3.001
		c3.143-1.83,3.619-6.52,7.474-7.534c1.864,2.865,6.509,3.829,10.074,2.309c0.198-0.084,0.392-0.177,0.582-0.275
		c0.431-0.375,0.178-0.813-0.086-1.135c-0.132-0.119-0.243-0.237-0.362-0.364c-2.012-2.162-2.472-7.266-1.579-9.748
		c1.017-2.824,2.022-7.343,3.046-11.075c1.1-4.01,1.506-9.063,2.837-11.106c2.002-3.072,4.215-4.127,6.136-5.86
		c1.92-1.733,3.679-3.419,3.621-7.384C86.547,0.734,85.946,0.03,84.839,0 M85.043,4.163c-0.396,2.734-2.152,4.247-4.207,5.688
		c-1.81,1.27-3.794,2.493-5.069,4.477c-1.305,2.031-2.134,8.985-4.159,15.852c-1.68,5.698-4.184,11.335-8.467,14.05
		c-0.278,0.176-0.645,0.015-0.704-0.309c-0.289-1.592-0.24-4.509-0.734-3.56c-0.62,1.77-1.322,3.458-2.143,5.027
		c-2.52,4.816-6.166,8.505-12.057,9.949c-0.475,0.116-0.838-0.423-0.552-0.82c2.718-3.769,5.15-7.825,5.447-14.014
		c0.025-0.534-0.646-0.778-0.983-0.364c-1.284,1.583-1.591,5.347-3.477,6.506c-1.474,0.161-2.967,0.16-4.469,0.07
		c-6.171-0.37-12.502-2.226-18.274-0.373c-3.931,1.262-8.057,4.849-11.386,6.293c-3.912,1.696-5.765,3.297-10.706,3.187
		c-0.505-0.68,2.062-3.623,2.934-4.893c0.278-0.407-0.317-0.835-0.874-1.091c-1.338-0.614-2.681-2.281-4.107-2.93
		c0.183-0.337,0.831-0.674,1.187-0.881c3.241-1.88,11.832,2.124,14.141-0.143c1.425-1.398,2.385-2.626,3.353-4.049
		c0.939-1.381,2.368-2.838,3.847-4.047c0.546-0.447,1.311-1.003,1.941-1.435c2.52-1.724,3.907-1.852,7.17-3.064
		c4.152-1.544,9.293-2.898,13.747-4.6c2.752-1.053,5.744-2.351,8.183-4.169c0.579-0.432,1.127-0.893,1.634-1.386
		c6.964-6.79,8.345-18.766,19.211-19.882c1.314-0.135,2.248-0.192,3.228-0.223C79.794,3,80.879,2.72,81.961,2.211
		c0.334-0.146,2.324-1.349,2.996-0.768C85.405,1.831,85.072,3.935,85.043,4.163"/>
</g>
</svg>
